<svg xmlns="http://www.w3.org/2000/svg" xml:space="preserve" xmlns:xlink="http://www.w3.org/1999/xlink" style="max-width: 100%;height: auto;" width="984" height="984" viewBox="0 0 984 984">
<defs><mask id="qrmask"><g fill="#ffffff"><g>
<g transform="translate(240,48) scale(4.12)"><path d="M6,6H0V3c0-1.7,1.3-3,3-3l3,0V6z"></path></g>
<g transform="translate(264,48) scale(4.12)"><rect width="6" height="6"></rect></g>
<g transform="translate(288,48) scale(4.12)"><path d="M6,6H0V0l3,0c1.7,0,3,1.3,3,3V6z"></path></g>
<g transform="translate(360,48) scale(4.12)"><path d="M6,6H3C1.3,6,0,4.7,0,3v0c0-1.7,1.3-3,3-3h3C6,0,6,6,6,6z"></path></g>
<g transform="translate(384,48) scale(4.12)"><path d="M3,6H0V0l3,0c1.7,0,3,1.3,3,3v0C6,4.7,4.7,6,3,6z"></path></g>
<g transform="translate(480,48) scale(4.12)"><path d="M6,6H0V3c0-1.7,1.3-3,3-3h0c1.7,0,3,1.3,3,3V6z"></path></g>
<g transform="translate(528,48) scale(4.12)"><circle cx="3" cy="3" r="3"></circle></g>
<g transform="translate(600,48) scale(4.12)"><path d="M6,6H0V3c0-1.7,1.3-3,3-3l3,0V6z"></path></g>
<g transform="translate(624,48) scale(4.12)"><path d="M3,6H0V0l3,0c1.7,0,3,1.3,3,3v0C6,4.7,4.7,6,3,6z"></path></g>
<g transform="translate(672,48) scale(4.12)"><circle cx="3" cy="3" r="3"></circle></g>
<g transform="translate(720,48) scale(4.12)"><path d="M6,6H0V3c0-1.7,1.3-3,3-3h0c1.7,0,3,1.3,3,3V6z"></path></g>
<g transform="translate(240,72) scale(4.12)"><rect width="6" height="6"></rect></g>
<g transform="translate(288,72) scale(4.12)"><path d="M3,6L3,6C1.3,6,0,4.7,0,3V0h6v3C6,4.7,4.7,6,3,6z"></path></g>
<g transform="translate(408,72) scale(4.12)"><path d="M6,6H3C1.3,6,0,4.7,0,3v0c0-1.7,1.3-3,3-3h3C6,0,6,6,6,6z"></path></g>
<g transform="translate(432,72) scale(4.12)"><path d="M3,6H0V0l3,0c1.7,0,3,1.3,3,3v0C6,4.7,4.7,6,3,6z"></path></g>
<g transform="translate(480,72) scale(4.12)"><path d="M6,6H3C1.3,6,0,4.7,0,3V0l6,0V6z"></path></g>
<g transform="translate(504,72) scale(4.12)"><path d="M6,6H0V0l3,0c1.7,0,3,1.3,3,3V6z"></path></g>
<g transform="translate(600,72) scale(4.12)"><path d="M3,6L3,6C1.3,6,0,4.7,0,3V0h6v3C6,4.7,4.7,6,3,6z"></path></g>
<g transform="translate(696,72) scale(4.12)"><path d="M6,6H3C1.3,6,0,4.7,0,3v0c0-1.7,1.3-3,3-3h3C6,0,6,6,6,6z"></path></g>
<g transform="translate(720,72) scale(4.12)"><rect width="6" height="6"></rect></g>
<g transform="translate(240,96) scale(4.12)"><path d="M3,6L3,6C1.3,6,0,4.7,0,3V0h6v3C6,4.7,4.7,6,3,6z"></path></g>
<g transform="translate(312,96) scale(4.12)"><path d="M6,6H3C1.3,6,0,4.7,0,3v0c0-1.7,1.3-3,3-3h3C6,0,6,6,6,6z"></path></g>
<g transform="translate(336,96) scale(4.12)"><rect width="6" height="6"></rect></g>
<g transform="translate(360,96) scale(4.12)"><path d="M3,6H0V0l3,0c1.7,0,3,1.3,3,3v0C6,4.7,4.7,6,3,6z"></path></g>
<g transform="translate(504,96) scale(4.12)"><rect width="6" height="6"></rect></g>
<g transform="translate(624,96) scale(4.12)"><path d="M6,6H0V3c0-1.7,1.3-3,3-3h0c1.7,0,3,1.3,3,3V6z"></path></g>
<g transform="translate(672,96) scale(4.12)"><path d="M6,6H0V3c0-1.7,1.3-3,3-3h0c1.7,0,3,1.3,3,3V6z"></path></g>
<g transform="translate(720,96) scale(4.12)"><path d="M3,6L3,6C1.3,6,0,4.7,0,3V0h6v3C6,4.7,4.7,6,3,6z"></path></g>
<g transform="translate(264,120) scale(4.12)"><path d="M6,6H0V3c0-1.7,1.3-3,3-3l3,0V6z"></path></g>
<g transform="translate(288,120) scale(4.12)"><path d="M6,6H0V0l3,0c1.7,0,3,1.3,3,3V6z"></path></g>
<g transform="translate(384,120) scale(4.12)"><path d="M6,6H0V3c0-1.7,1.3-3,3-3l3,0V6z"></path></g>
<g transform="translate(408,120) scale(4.12)"><rect width="6" height="6"></rect></g>
<g transform="translate(432,120) scale(4.12)"><path d="M3,6H0V0l3,0c1.7,0,3,1.3,3,3v0C6,4.7,4.7,6,3,6z"></path></g>
<g transform="translate(504,120) scale(4.12)"><rect width="6" height="6"></rect></g>
<g transform="translate(552,120) scale(4.12)"><path d="M6,6H3C1.3,6,0,4.7,0,3v0c0-1.7,1.3-3,3-3h3C6,0,6,6,6,6z"></path></g>
<g transform="translate(576,120) scale(4.12)"><path d="M3,6H0V0l3,0c1.7,0,3,1.3,3,3v0C6,4.7,4.7,6,3,6z"></path></g>
<g transform="translate(624,120) scale(4.12)"><path d="M6,6H3C1.3,6,0,4.7,0,3V0l6,0V6z"></path></g>
<g transform="translate(648,120) scale(4.12)"><rect width="6" height="6"></rect></g>
<g transform="translate(672,120) scale(4.12)"><rect width="6" height="6"></rect></g>
<g transform="translate(264,144) scale(4.12)"><rect width="6" height="6"></rect></g>
<g transform="translate(288,144) scale(4.12)"><path d="M3,6H0V0l6,0v3C6,4.7,4.7,6,3,6z"></path></g>
<g transform="translate(384,144) scale(4.12)"><rect width="6" height="6"></rect></g>
<g transform="translate(456,144) scale(4.12)"><path d="M6,6H0V3c0-1.7,1.3-3,3-3h0c1.7,0,3,1.3,3,3V6z"></path></g>
<g transform="translate(504,144) scale(4.12)"><rect width="6" height="6"></rect></g>
<g transform="translate(600,144) scale(4.12)"><path d="M6,6H0V3c0-1.7,1.3-3,3-3h0c1.7,0,3,1.3,3,3V6z"></path></g>
<g transform="translate(672,144) scale(4.12)"><path d="M3,6L3,6C1.3,6,0,4.7,0,3V0h6v3C6,4.7,4.7,6,3,6z"></path></g>
<g transform="translate(240,168) scale(4.12)"><path d="M6,6H0V3c0-1.7,1.3-3,3-3l3,0V6z"></path></g>
<g transform="translate(264,168) scale(4.12)"><path d="M3,6H0V0l6,0v3C6,4.7,4.7,6,3,6z"></path></g>
<g transform="translate(336,168) scale(4.12)"><path d="M6,6H0V3c0-1.7,1.3-3,3-3l3,0V6z"></path></g>
<g transform="translate(360,168) scale(4.12)"><rect width="6" height="6"></rect></g>
<g transform="translate(384,168) scale(4.12)"><rect width="6" height="6"></rect></g>
<g transform="translate(408,168) scale(4.12)"><path d="M3,6H0V0l3,0c1.7,0,3,1.3,3,3v0C6,4.7,4.7,6,3,6z"></path></g>
<g transform="translate(456,168) scale(4.12)"><path d="M6,6H3C1.3,6,0,4.7,0,3V0l6,0V6z"></path></g>
<g transform="translate(480,168) scale(4.12)"><rect width="6" height="6"></rect></g>
<g transform="translate(504,168) scale(4.12)"><rect width="6" height="6"></rect></g>
<g transform="translate(528,168) scale(4.12)"><rect width="6" height="6"></rect></g>
<g transform="translate(552,168) scale(4.12)"><rect width="6" height="6"></rect></g>
<g transform="translate(576,168) scale(4.12)"><rect width="6" height="6"></rect></g>
<g transform="translate(600,168) scale(4.12)"><path d="M3,6H0V0l6,0v3C6,4.7,4.7,6,3,6z"></path></g>
<g transform="translate(696,168) scale(4.12)"><path d="M6,6H3C1.3,6,0,4.7,0,3v0c0-1.7,1.3-3,3-3h3C6,0,6,6,6,6z"></path></g>
<g transform="translate(720,168) scale(4.12)"><path d="M6,6H0V0l3,0c1.7,0,3,1.3,3,3V6z"></path></g>
<g transform="translate(240,192) scale(4.12)"><rect width="6" height="6"></rect></g>
<g transform="translate(288,192) scale(4.12)"><circle cx="3" cy="3" r="3"></circle></g>
<g transform="translate(336,192) scale(4.12)"><rect width="6" height="6"></rect></g>
<g transform="translate(384,192) scale(4.12)"><path d="M3,6L3,6C1.3,6,0,4.7,0,3V0h6v3C6,4.7,4.7,6,3,6z"></path></g>
<g transform="translate(432,192) scale(4.12)"><circle cx="3" cy="3" r="3"></circle></g>
<g transform="translate(480,192) scale(4.12)"><path d="M3,6L3,6C1.3,6,0,4.7,0,3V0h6v3C6,4.7,4.7,6,3,6z"></path></g>
<g transform="translate(528,192) scale(4.12)"><path d="M3,6L3,6C1.3,6,0,4.7,0,3V0h6v3C6,4.7,4.7,6,3,6z"></path></g>
<g transform="translate(576,192) scale(4.12)"><path d="M3,6L3,6C1.3,6,0,4.7,0,3V0h6v3C6,4.7,4.7,6,3,6z"></path></g>
<g transform="translate(624,192) scale(4.12)"><path d="M6,6H0V3c0-1.7,1.3-3,3-3h0c1.7,0,3,1.3,3,3V6z"></path></g>
<g transform="translate(672,192) scale(4.12)"><path d="M6,6H0V3c0-1.7,1.3-3,3-3h0c1.7,0,3,1.3,3,3V6z"></path></g>
<g transform="translate(720,192) scale(4.12)"><rect width="6" height="6"></rect></g>
<g transform="translate(240,216) scale(4.12)"><rect width="6" height="6"></rect></g>
<g transform="translate(312,216) scale(4.12)"><path d="M6,6H3C1.3,6,0,4.7,0,3v0c0-1.7,1.3-3,3-3h3C6,0,6,6,6,6z"></path></g>
<g transform="translate(336,216) scale(4.12)"><rect width="6" height="6"></rect></g>
<g transform="translate(360,216) scale(4.12)"><path d="M6,6H0V0l3,0c1.7,0,3,1.3,3,3V6z"></path></g>
<g transform="translate(408,216) scale(4.12)"><path d="M6,6H0V3c0-1.7,1.3-3,3-3h0c1.7,0,3,1.3,3,3V6z"></path></g>
<g transform="translate(456,216) scale(4.12)"><path d="M6,6H0V3c0-1.7,1.3-3,3-3h0c1.7,0,3,1.3,3,3V6z"></path></g>
<g transform="translate(600,216) scale(4.12)"><path d="M6,6H0V3c0-1.7,1.3-3,3-3l3,0V6z"></path></g>
<g transform="translate(624,216) scale(4.12)"><rect width="6" height="6"></rect></g>
<g transform="translate(672,216) scale(4.12)"><path d="M3,6L3,6C1.3,6,0,4.7,0,3V0h6v3C6,4.7,4.7,6,3,6z"></path></g>
<g transform="translate(720,216) scale(4.12)"><path d="M3,6L3,6C1.3,6,0,4.7,0,3V0h6v3C6,4.7,4.7,6,3,6z"></path></g>
<g transform="translate(96,240) scale(4.12)"><path d="M6,6H3C1.3,6,0,4.7,0,3v0c0-1.7,1.3-3,3-3h3C6,0,6,6,6,6z"></path></g>
<g transform="translate(120,240) scale(4.12)"><rect width="6" height="6"></rect></g>
<g transform="translate(144,240) scale(4.12)"><path d="M3,6H0V0l3,0c1.7,0,3,1.3,3,3v0C6,4.7,4.7,6,3,6z"></path></g>
<g transform="translate(192,240) scale(4.12)"><circle cx="3" cy="3" r="3"></circle></g>
<g transform="translate(240,240) scale(4.12)"><path d="M3,6L3,6C1.3,6,0,4.7,0,3V0h6v3C6,4.7,4.7,6,3,6z"></path></g>
<g transform="translate(360,240) scale(4.12)"><rect width="6" height="6"></rect></g>
<g transform="translate(384,240) scale(4.12)"><rect width="6" height="6"></rect></g>
<g transform="translate(408,240) scale(4.12)"><path d="M3,6H0V0l6,0v3C6,4.7,4.7,6,3,6z"></path></g>
<g transform="translate(456,240) scale(4.12)"><path d="M3,6L3,6C1.3,6,0,4.7,0,3V0h6v3C6,4.7,4.7,6,3,6z"></path></g>
<g transform="translate(528,240) scale(4.12)"><path d="M6,6H3C1.3,6,0,4.7,0,3v0c0-1.7,1.3-3,3-3h3C6,0,6,6,6,6z"></path></g>
<g transform="translate(552,240) scale(4.12)"><path d="M6,6H0V0l3,0c1.7,0,3,1.3,3,3V6z"></path></g>
<g transform="translate(600,240) scale(4.12)"><path d="M6,6H3C1.3,6,0,4.7,0,3V0l6,0V6z"></path></g>
<g transform="translate(624,240) scale(4.12)"><path d="M3,6H0V0l6,0v3C6,4.7,4.7,6,3,6z"></path></g>
<g transform="translate(744,240) scale(4.12)"><path d="M6,6H3C1.3,6,0,4.7,0,3v0c0-1.7,1.3-3,3-3h3C6,0,6,6,6,6z"></path></g>
<g transform="translate(768,240) scale(4.12)"><rect width="6" height="6"></rect></g>
<g transform="translate(792,240) scale(4.12)"><path d="M6,6H0V0l3,0c1.7,0,3,1.3,3,3V6z"></path></g>
<g transform="translate(864,240) scale(4.12)"><path d="M6,6H3C1.3,6,0,4.7,0,3v0c0-1.7,1.3-3,3-3h3C6,0,6,6,6,6z"></path></g>
<g transform="translate(888,240) scale(4.12)"><rect width="6" height="6"></rect></g>
<g transform="translate(912,240) scale(4.12)"><path d="M3,6H0V0l3,0c1.7,0,3,1.3,3,3v0C6,4.7,4.7,6,3,6z"></path></g>
<g transform="translate(48,264) scale(4.12)"><circle cx="3" cy="3" r="3"></circle></g>
<g transform="translate(216,264) scale(4.12)"><path d="M6,6H0V3c0-1.7,1.3-3,3-3h0c1.7,0,3,1.3,3,3V6z"></path></g>
<g transform="translate(312,264) scale(4.12)"><path d="M6,6H3C1.3,6,0,4.7,0,3v0c0-1.7,1.3-3,3-3h3C6,0,6,6,6,6z"></path></g>
<g transform="translate(336,264) scale(4.12)"><rect width="6" height="6"></rect></g>
<g transform="translate(360,264) scale(4.12)"><rect width="6" height="6"></rect></g>
<g transform="translate(384,264) scale(4.12)"><rect width="6" height="6"></rect></g>
<g transform="translate(504,264) scale(4.12)"><circle cx="3" cy="3" r="3"></circle></g>
<g transform="translate(552,264) scale(4.12)"><rect width="6" height="6"></rect></g>
<g transform="translate(576,264) scale(4.12)"><path d="M6,6H0V0l3,0c1.7,0,3,1.3,3,3V6z"></path></g>
<g transform="translate(648,264) scale(4.12)"><path d="M6,6H0V3c0-1.7,1.3-3,3-3l3,0V6z"></path></g>
<g transform="translate(672,264) scale(4.12)"><rect width="6" height="6"></rect></g>
<g transform="translate(696,264) scale(4.12)"><rect width="6" height="6"></rect></g>
<g transform="translate(720,264) scale(4.12)"><path d="M3,6H0V0l3,0c1.7,0,3,1.3,3,3v0C6,4.7,4.7,6,3,6z"></path></g>
<g transform="translate(792,264) scale(4.12)"><rect width="6" height="6"></rect></g>
<g transform="translate(840,264) scale(4.12)"><path d="M6,6H0V3c0-1.7,1.3-3,3-3h0c1.7,0,3,1.3,3,3V6z"></path></g>
<g transform="translate(72,288) scale(4.12)"><path d="M6,6H0V3c0-1.7,1.3-3,3-3h0c1.7,0,3,1.3,3,3V6z"></path></g>
<g transform="translate(120,288) scale(4.12)"><path d="M6,6H3C1.3,6,0,4.7,0,3v0c0-1.7,1.3-3,3-3h3C6,0,6,6,6,6z"></path></g>
<g transform="translate(144,288) scale(4.12)"><rect width="6" height="6"></rect></g>
<g transform="translate(168,288) scale(4.12)"><rect width="6" height="6"></rect></g>
<g transform="translate(192,288) scale(4.12)"><rect width="6" height="6"></rect></g>
<g transform="translate(216,288) scale(4.12)"><rect width="6" height="6"></rect></g>
<g transform="translate(240,288) scale(4.12)"><rect width="6" height="6"></rect></g>
<g transform="translate(264,288) scale(4.12)"><rect width="6" height="6"></rect></g>
<g transform="translate(288,288) scale(4.12)"><path d="M6,6H0V0l3,0c1.7,0,3,1.3,3,3V6z"></path></g>
<g transform="translate(336,288) scale(4.12)"><path d="M3,6L3,6C1.3,6,0,4.7,0,3V0h6v3C6,4.7,4.7,6,3,6z"></path></g>
<g transform="translate(384,288) scale(4.12)"><rect width="6" height="6"></rect></g>
<g transform="translate(408,288) scale(4.12)"><path d="M6,6H0V0l3,0c1.7,0,3,1.3,3,3V6z"></path></g>
<g transform="translate(480,288) scale(4.12)"><path d="M6,6H0V3c0-1.7,1.3-3,3-3h0c1.7,0,3,1.3,3,3V6z"></path></g>
<g transform="translate(552,288) scale(4.12)"><path d="M6,6H3C1.3,6,0,4.7,0,3V0l6,0V6z"></path></g>
<g transform="translate(576,288) scale(4.12)"><rect width="6" height="6"></rect></g>
<g transform="translate(600,288) scale(4.12)"><path d="M3,6H0V0l3,0c1.7,0,3,1.3,3,3v0C6,4.7,4.7,6,3,6z"></path></g>
<g transform="translate(648,288) scale(4.12)"><path d="M6,6H3C1.3,6,0,4.7,0,3V0l6,0V6z"></path></g>
<g transform="translate(672,288) scale(4.12)"><rect width="6" height="6"></rect></g>
<g transform="translate(768,288) scale(4.12)"><path d="M6,6H0V3c0-1.7,1.3-3,3-3l3,0V6z"></path></g>
<g transform="translate(792,288) scale(4.12)"><rect width="6" height="6"></rect></g>
<g transform="translate(816,288) scale(4.12)"><rect width="6" height="6"></rect></g>
<g transform="translate(840,288) scale(4.12)"><rect width="6" height="6"></rect></g>
<g transform="translate(864,288) scale(4.12)"><rect width="6" height="6"></rect></g>
<g transform="translate(888,288) scale(4.12)"><rect width="6" height="6"></rect></g>
<g transform="translate(912,288) scale(4.12)"><path d="M3,6H0V0l3,0c1.7,0,3,1.3,3,3v0C6,4.7,4.7,6,3,6z"></path></g>
<g transform="translate(72,312) scale(4.12)"><rect width="6" height="6"></rect></g>
<g transform="translate(144,312) scale(4.12)"><path d="M3,6L3,6C1.3,6,0,4.7,0,3V0h6v3C6,4.7,4.7,6,3,6z"></path></g>
<g transform="translate(216,312) scale(4.12)"><path d="M3,6L3,6C1.3,6,0,4.7,0,3V0h6v3C6,4.7,4.7,6,3,6z"></path></g>
<g transform="translate(264,312) scale(4.12)"><path d="M6,6H3C1.3,6,0,4.7,0,3V0l6,0V6z"></path></g>
<g transform="translate(288,312) scale(4.12)"><rect width="6" height="6"></rect></g>
<g transform="translate(360,312) scale(4.12)"><path d="M6,6H3C1.3,6,0,4.7,0,3v0c0-1.7,1.3-3,3-3h3C6,0,6,6,6,6z"></path></g>
<g transform="translate(384,312) scale(4.12)"><rect width="6" height="6"></rect></g>
<g transform="translate(408,312) scale(4.12)"><path d="M3,6H0V0l6,0v3C6,4.7,4.7,6,3,6z"></path></g>
<g transform="translate(456,312) scale(4.12)"><path d="M6,6H0V3c0-1.7,1.3-3,3-3l3,0V6z"></path></g>
<g transform="translate(480,312) scale(4.12)"><rect width="6" height="6"></rect></g>
<g transform="translate(504,312) scale(4.12)"><rect width="6" height="6"></rect></g>
<g transform="translate(528,312) scale(4.12)"><path d="M3,6H0V0l3,0c1.7,0,3,1.3,3,3v0C6,4.7,4.7,6,3,6z"></path></g>
<g transform="translate(624,312) scale(4.12)"><circle cx="3" cy="3" r="3"></circle></g>
<g transform="translate(672,312) scale(4.12)"><rect width="6" height="6"></rect></g>
<g transform="translate(720,312) scale(4.12)"><circle cx="3" cy="3" r="3"></circle></g>
<g transform="translate(768,312) scale(4.12)"><rect width="6" height="6"></rect></g>
<g transform="translate(792,312) scale(4.12)"><rect width="6" height="6"></rect></g>
<g transform="translate(816,312) scale(4.12)"><rect width="6" height="6"></rect></g>
<g transform="translate(840,312) scale(4.12)"><rect width="6" height="6"></rect></g>
<g transform="translate(72,336) scale(4.12)"><path d="M3,6L3,6C1.3,6,0,4.7,0,3V0h6v3C6,4.7,4.7,6,3,6z"></path></g>
<g transform="translate(120,336) scale(4.12)"><path d="M6,6H0V3c0-1.7,1.3-3,3-3h0c1.7,0,3,1.3,3,3V6z"></path></g>
<g transform="translate(192,336) scale(4.12)"><circle cx="3" cy="3" r="3"></circle></g>
<g transform="translate(288,336) scale(4.12)"><rect width="6" height="6"></rect></g>
<g transform="translate(312,336) scale(4.12)"><rect width="6" height="6"></rect></g>
<g transform="translate(336,336) scale(4.12)"><path d="M3,6H0V0l3,0c1.7,0,3,1.3,3,3v0C6,4.7,4.7,6,3,6z"></path></g>
<g transform="translate(384,336) scale(4.12)"><rect width="6" height="6"></rect></g>
<g transform="translate(432,336) scale(4.12)"><path d="M6,6H3C1.3,6,0,4.7,0,3v0c0-1.7,1.3-3,3-3h3C6,0,6,6,6,6z"></path></g>
<g transform="translate(456,336) scale(4.12)"><rect width="6" height="6"></rect></g>
<g transform="translate(552,336) scale(4.12)"><path d="M6,6H0V3c0-1.7,1.3-3,3-3h0c1.7,0,3,1.3,3,3V6z"></path></g>
<g transform="translate(648,336) scale(4.12)"><path d="M6,6H3C1.3,6,0,4.7,0,3v0c0-1.7,1.3-3,3-3h3C6,0,6,6,6,6z"></path></g>
<g transform="translate(672,336) scale(4.12)"><path d="M3,6H0V0l6,0v3C6,4.7,4.7,6,3,6z"></path></g>
<g transform="translate(744,336) scale(4.12)"><path d="M6,6H0V3c0-1.7,1.3-3,3-3l3,0V6z"></path></g>
<g transform="translate(768,336) scale(4.12)"><path d="M3,6H0V0l6,0v3C6,4.7,4.7,6,3,6z"></path></g>
<g transform="translate(816,336) scale(4.12)"><path d="M6,6H3C1.3,6,0,4.7,0,3V0l6,0V6z"></path></g>
<g transform="translate(840,336) scale(4.12)"><rect width="6" height="6"></rect></g>
<g transform="translate(864,336) scale(4.12)"><rect width="6" height="6"></rect></g>
<g transform="translate(888,336) scale(4.12)"><rect width="6" height="6"></rect></g>
<g transform="translate(912,336) scale(4.12)"><path d="M3,6H0V0l3,0c1.7,0,3,1.3,3,3v0C6,4.7,4.7,6,3,6z"></path></g>
<g transform="translate(120,360) scale(4.12)"><path d="M6,6H3C1.3,6,0,4.7,0,3V0l6,0V6z"></path></g>
<g transform="translate(144,360) scale(4.12)"><rect width="6" height="6"></rect></g>
<g transform="translate(168,360) scale(4.12)"><path d="M6,6H0V0l3,0c1.7,0,3,1.3,3,3V6z"></path></g>
<g transform="translate(264,360) scale(4.12)"><path d="M6,6H3C1.3,6,0,4.7,0,3v0c0-1.7,1.3-3,3-3h3C6,0,6,6,6,6z"></path></g>
<g transform="translate(288,360) scale(4.12)"><rect width="6" height="6"></rect></g>
<g transform="translate(312,360) scale(4.12)"><path d="M3,6H0V0l6,0v3C6,4.7,4.7,6,3,6z"></path></g>
<g transform="translate(384,360) scale(4.12)"><path d="M3,6L3,6C1.3,6,0,4.7,0,3V0h6v3C6,4.7,4.7,6,3,6z"></path></g>
<g transform="translate(456,360) scale(4.12)"><path d="M3,6L3,6C1.3,6,0,4.7,0,3V0h6v3C6,4.7,4.7,6,3,6z"></path></g>
<g transform="translate(504,360) scale(4.12)"><path d="M6,6H3C1.3,6,0,4.7,0,3v0c0-1.7,1.3-3,3-3h3C6,0,6,6,6,6z"></path></g>
<g transform="translate(528,360) scale(4.12)"><rect width="6" height="6"></rect></g>
<g transform="translate(552,360) scale(4.12)"><path d="M3,6H0V0l6,0v3C6,4.7,4.7,6,3,6z"></path></g>
<g transform="translate(600,360) scale(4.12)"><circle cx="3" cy="3" r="3"></circle></g>
<g transform="translate(720,360) scale(4.12)"><path d="M6,6H3C1.3,6,0,4.7,0,3v0c0-1.7,1.3-3,3-3h3C6,0,6,6,6,6z"></path></g>
<g transform="translate(744,360) scale(4.12)"><rect width="6" height="6"></rect></g>
<g transform="translate(792,360) scale(4.12)"><path d="M6,6H0V3c0-1.7,1.3-3,3-3h0c1.7,0,3,1.3,3,3V6z"></path></g>
<g transform="translate(840,360) scale(4.12)"><rect width="6" height="6"></rect></g>
<g transform="translate(864,360) scale(4.12)"><path d="M3,6H0V0l6,0v3C6,4.7,4.7,6,3,6z"></path></g>
<g transform="translate(72,384) scale(4.12)"><path d="M6,6H0V3c0-1.7,1.3-3,3-3h0c1.7,0,3,1.3,3,3V6z"></path></g>
<g transform="translate(168,384) scale(4.12)"><path d="M6,6H3C1.3,6,0,4.7,0,3V0l6,0V6z"></path></g>
<g transform="translate(192,384) scale(4.12)"><path d="M3,6H0V0l3,0c1.7,0,3,1.3,3,3v0C6,4.7,4.7,6,3,6z"></path></g>
<g transform="translate(288,384) scale(4.12)"><path d="M3,6L3,6C1.3,6,0,4.7,0,3V0h6v3C6,4.7,4.7,6,3,6z"></path></g>
<g transform="translate(624,384) scale(4.12)"><path d="M6,6H3C1.3,6,0,4.7,0,3v0c0-1.7,1.3-3,3-3h3C6,0,6,6,6,6z"></path></g>
<g transform="translate(648,384) scale(4.12)"><path d="M3,6H0V0l3,0c1.7,0,3,1.3,3,3v0C6,4.7,4.7,6,3,6z"></path></g>
<g transform="translate(696,384) scale(4.12)"><circle cx="3" cy="3" r="3"></circle></g>
<g transform="translate(744,384) scale(4.12)"><rect width="6" height="6"></rect></g>
<g transform="translate(768,384) scale(4.12)"><rect width="6" height="6"></rect></g>
<g transform="translate(792,384) scale(4.12)"><rect width="6" height="6"></rect></g>
<g transform="translate(816,384) scale(4.12)"><rect width="6" height="6"></rect></g>
<g transform="translate(840,384) scale(4.12)"><path d="M3,6H0V0l6,0v3C6,4.7,4.7,6,3,6z"></path></g>
<g transform="translate(888,384) scale(4.12)"><path d="M6,6H3C1.3,6,0,4.7,0,3v0c0-1.7,1.3-3,3-3h3C6,0,6,6,6,6z"></path></g>
<g transform="translate(912,384) scale(4.12)"><path d="M3,6H0V0l3,0c1.7,0,3,1.3,3,3v0C6,4.7,4.7,6,3,6z"></path></g>
<g transform="translate(72,408) scale(4.12)"><rect width="6" height="6"></rect></g>
<g transform="translate(120,408) scale(4.12)"><circle cx="3" cy="3" r="3"></circle></g>
<g transform="translate(216,408) scale(4.12)"><path d="M6,6H0V3c0-1.7,1.3-3,3-3h0c1.7,0,3,1.3,3,3V6z"></path></g>
<g transform="translate(384,408) scale(4.12)"><path d="M6,6H0V3c0-1.7,1.3-3,3-3l3,0V6z"></path></g>
<g transform="translate(408,408) scale(4.12)"><path d="M6,6H0V0l3,0c1.7,0,3,1.3,3,3V6z"></path></g>
<g transform="translate(456,408) scale(4.12)"><path d="M6,6H3C1.3,6,0,4.7,0,3v0c0-1.7,1.3-3,3-3h3C6,0,6,6,6,6z"></path></g>
<g transform="translate(480,408) scale(4.12)"><path d="M6,6H0V0l3,0c1.7,0,3,1.3,3,3V6z"></path></g>
<g transform="translate(528,408) scale(4.12)"><path d="M6,6H0V3c0-1.7,1.3-3,3-3l3,0V6z"></path></g>
<g transform="translate(552,408) scale(4.12)"><rect width="6" height="6"></rect></g>
<g transform="translate(576,408) scale(4.12)"><rect width="6" height="6"></rect></g>
<g transform="translate(600,408) scale(4.12)"><path d="M3,6H0V0l3,0c1.7,0,3,1.3,3,3v0C6,4.7,4.7,6,3,6z"></path></g>
<g transform="translate(720,408) scale(4.12)"><path d="M6,6H3C1.3,6,0,4.7,0,3v0c0-1.7,1.3-3,3-3h3C6,0,6,6,6,6z"></path></g>
<g transform="translate(744,408) scale(4.12)"><path d="M3,6H0V0l6,0v3C6,4.7,4.7,6,3,6z"></path></g>
<g transform="translate(48,432) scale(4.12)"><path d="M6,6H0V3c0-1.7,1.3-3,3-3l3,0V6z"></path></g>
<g transform="translate(72,432) scale(4.12)"><rect width="6" height="6"></rect></g>
<g transform="translate(96,432) scale(4.12)"><path d="M6,6H0V0l3,0c1.7,0,3,1.3,3,3V6z"></path></g>
<g transform="translate(168,432) scale(4.12)"><path d="M6,6H0V3c0-1.7,1.3-3,3-3l3,0V6z"></path></g>
<g transform="translate(192,432) scale(4.12)"><rect width="6" height="6"></rect></g>
<g transform="translate(216,432) scale(4.12)"><rect width="6" height="6"></rect></g>
<g transform="translate(240,432) scale(4.12)"><path d="M3,6H0V0l3,0c1.7,0,3,1.3,3,3v0C6,4.7,4.7,6,3,6z"></path></g>
<g transform="translate(336,432) scale(4.12)"><path d="M6,6H3C1.3,6,0,4.7,0,3v0c0-1.7,1.3-3,3-3h3C6,0,6,6,6,6z"></path></g>
<g transform="translate(360,432) scale(4.12)"><rect width="6" height="6"></rect></g>
<g transform="translate(384,432) scale(4.12)"><rect width="6" height="6"></rect></g>
<g transform="translate(408,432) scale(4.12)"><rect width="6" height="6"></rect></g>
<g transform="translate(432,432) scale(4.12)"><path d="M3,6H0V0l3,0c1.7,0,3,1.3,3,3v0C6,4.7,4.7,6,3,6z"></path></g>
<g transform="translate(480,432) scale(4.12)"><path d="M6,6H3C1.3,6,0,4.7,0,3V0l6,0V6z"></path></g>
<g transform="translate(504,432) scale(4.12)"><rect width="6" height="6"></rect></g>
<g transform="translate(528,432) scale(4.12)"><rect width="6" height="6"></rect></g>
<g transform="translate(552,432) scale(4.12)"><rect width="6" height="6"></rect></g>
<g transform="translate(624,432) scale(4.12)"><path d="M6,6H3C1.3,6,0,4.7,0,3v0c0-1.7,1.3-3,3-3h3C6,0,6,6,6,6z"></path></g>
<g transform="translate(648,432) scale(4.12)"><rect width="6" height="6"></rect></g>
<g transform="translate(672,432) scale(4.12)"><path d="M6,6H0V0l3,0c1.7,0,3,1.3,3,3V6z"></path></g>
<g transform="translate(768,432) scale(4.12)"><circle cx="3" cy="3" r="3"></circle></g>
<g transform="translate(816,432) scale(4.12)"><circle cx="3" cy="3" r="3"></circle></g>
<g transform="translate(864,432) scale(4.12)"><path d="M6,6H3C1.3,6,0,4.7,0,3v0c0-1.7,1.3-3,3-3h3C6,0,6,6,6,6z"></path></g>
<g transform="translate(888,432) scale(4.12)"><path d="M3,6H0V0l3,0c1.7,0,3,1.3,3,3v0C6,4.7,4.7,6,3,6z"></path></g>
<g transform="translate(48,456) scale(4.12)"><rect width="6" height="6"></rect></g>
<g transform="translate(72,456) scale(4.12)"><rect width="6" height="6"></rect></g>
<g transform="translate(96,456) scale(4.12)"><path d="M3,6H0V0l6,0v3C6,4.7,4.7,6,3,6z"></path></g>
<g transform="translate(144,456) scale(4.12)"><path d="M6,6H0V3c0-1.7,1.3-3,3-3l3,0V6z"></path></g>
<g transform="translate(168,456) scale(4.12)"><path d="M3,6H0V0l6,0v3C6,4.7,4.7,6,3,6z"></path></g>
<g transform="translate(216,456) scale(4.12)"><rect width="6" height="6"></rect></g>
<g transform="translate(288,456) scale(4.12)"><path d="M6,6H0V3c0-1.7,1.3-3,3-3l3,0V6z"></path></g>
<g transform="translate(312,456) scale(4.12)"><path d="M6,6H0V0l3,0c1.7,0,3,1.3,3,3V6z"></path></g>
<g transform="translate(360,456) scale(4.12)"><path d="M3,6L3,6C1.3,6,0,4.7,0,3V0h6v3C6,4.7,4.7,6,3,6z"></path></g>
<g transform="translate(456,456) scale(4.12)"><path d="M6,6H0V3c0-1.7,1.3-3,3-3h0c1.7,0,3,1.3,3,3V6z"></path></g>
<g transform="translate(528,456) scale(4.12)"><rect width="6" height="6"></rect></g>
<g transform="translate(552,456) scale(4.12)"><rect width="6" height="6"></rect></g>
<g transform="translate(576,456) scale(4.12)"><rect width="6" height="6"></rect></g>
<g transform="translate(600,456) scale(4.12)"><path d="M3,6H0V0l3,0c1.7,0,3,1.3,3,3v0C6,4.7,4.7,6,3,6z"></path></g>
<g transform="translate(672,456) scale(4.12)"><path d="M3,6L3,6C1.3,6,0,4.7,0,3V0h6v3C6,4.7,4.7,6,3,6z"></path></g>
<g transform="translate(720,456) scale(4.12)"><circle cx="3" cy="3" r="3"></circle></g>
<g transform="translate(792,456) scale(4.12)"><circle cx="3" cy="3" r="3"></circle></g>
<g transform="translate(48,480) scale(4.12)"><rect width="6" height="6"></rect></g>
<g transform="translate(120,480) scale(4.12)"><path d="M6,6H0V3c0-1.7,1.3-3,3-3l3,0V6z"></path></g>
<g transform="translate(144,480) scale(4.12)"><path d="M3,6H0V0l6,0v3C6,4.7,4.7,6,3,6z"></path></g>
<g transform="translate(192,480) scale(4.12)"><path d="M6,6H3C1.3,6,0,4.7,0,3v0c0-1.7,1.3-3,3-3h3C6,0,6,6,6,6z"></path></g>
<g transform="translate(216,480) scale(4.12)"><path d="M3,6H0V0l6,0v3C6,4.7,4.7,6,3,6z"></path></g>
<g transform="translate(288,480) scale(4.12)"><path d="M6,6H3C1.3,6,0,4.7,0,3V0l6,0V6z"></path></g>
<g transform="translate(312,480) scale(4.12)"><path d="M3,6H0V0l6,0v3C6,4.7,4.7,6,3,6z"></path></g>
<g transform="translate(432,480) scale(4.12)"><path d="M6,6H3C1.3,6,0,4.7,0,3v0c0-1.7,1.3-3,3-3h3C6,0,6,6,6,6z"></path></g>
<g transform="translate(456,480) scale(4.12)"><rect width="6" height="6"></rect></g>
<g transform="translate(480,480) scale(4.12)"><path d="M3,6H0V0l3,0c1.7,0,3,1.3,3,3v0C6,4.7,4.7,6,3,6z"></path></g>
<g transform="translate(528,480) scale(4.12)"><path d="M6,6H3C1.3,6,0,4.7,0,3V0l6,0V6z"></path></g>
<g transform="translate(552,480) scale(4.12)"><rect width="6" height="6"></rect></g>
<g transform="translate(576,480) scale(4.12)"><path d="M3,6H0V0l6,0v3C6,4.7,4.7,6,3,6z"></path></g>
<g transform="translate(696,480) scale(4.12)"><path d="M6,6H0V3c0-1.7,1.3-3,3-3h0c1.7,0,3,1.3,3,3V6z"></path></g>
<g transform="translate(744,480) scale(4.12)"><path d="M6,6H0V3c0-1.7,1.3-3,3-3l3,0V6z"></path></g>
<g transform="translate(768,480) scale(4.12)"><path d="M6,6H0V0l3,0c1.7,0,3,1.3,3,3V6z"></path></g>
<g transform="translate(816,480) scale(4.12)"><path d="M6,6H0V3c0-1.7,1.3-3,3-3l3,0V6z"></path></g>
<g transform="translate(840,480) scale(4.12)"><path d="M3,6H0V0l3,0c1.7,0,3,1.3,3,3v0C6,4.7,4.7,6,3,6z"></path></g>
<g transform="translate(888,480) scale(4.12)"><path d="M6,6H0V3c0-1.7,1.3-3,3-3l3,0V6z"></path></g>
<g transform="translate(912,480) scale(4.12)"><path d="M3,6H0V0l3,0c1.7,0,3,1.3,3,3v0C6,4.7,4.7,6,3,6z"></path></g>
<g transform="translate(48,504) scale(4.12)"><path d="M3,6L3,6C1.3,6,0,4.7,0,3V0h6v3C6,4.7,4.7,6,3,6z"></path></g>
<g transform="translate(96,504) scale(4.12)"><path d="M6,6H0V3c0-1.7,1.3-3,3-3l3,0V6z"></path></g>
<g transform="translate(120,504) scale(4.12)"><rect width="6" height="6"></rect></g>
<g transform="translate(168,504) scale(4.12)"><circle cx="3" cy="3" r="3"></circle></g>
<g transform="translate(264,504) scale(4.12)"><circle cx="3" cy="3" r="3"></circle></g>
<g transform="translate(456,504) scale(4.12)"><path d="M3,6L3,6C1.3,6,0,4.7,0,3V0h6v3C6,4.7,4.7,6,3,6z"></path></g>
<g transform="translate(504,504) scale(4.12)"><circle cx="3" cy="3" r="3"></circle></g>
<g transform="translate(552,504) scale(4.12)"><rect width="6" height="6"></rect></g>
<g transform="translate(600,504) scale(4.12)"><circle cx="3" cy="3" r="3"></circle></g>
<g transform="translate(696,504) scale(4.12)"><rect width="6" height="6"></rect></g>
<g transform="translate(720,504) scale(4.12)"><rect width="6" height="6"></rect></g>
<g transform="translate(744,504) scale(4.12)"><rect width="6" height="6"></rect></g>
<g transform="translate(768,504) scale(4.12)"><rect width="6" height="6"></rect></g>
<g transform="translate(792,504) scale(4.12)"><rect width="6" height="6"></rect></g>
<g transform="translate(816,504) scale(4.12)"><rect width="6" height="6"></rect></g>
<g transform="translate(888,504) scale(4.12)"><rect width="6" height="6"></rect></g>
<g transform="translate(96,528) scale(4.12)"><rect width="6" height="6"></rect></g>
<g transform="translate(120,528) scale(4.12)"><rect width="6" height="6"></rect></g>
<g transform="translate(144,528) scale(4.12)"><path d="M6,6H0V0l3,0c1.7,0,3,1.3,3,3V6z"></path></g>
<g transform="translate(192,528) scale(4.12)"><path d="M6,6H3C1.3,6,0,4.7,0,3v0c0-1.7,1.3-3,3-3h3C6,0,6,6,6,6z"></path></g>
<g transform="translate(216,528) scale(4.12)"><path d="M3,6H0V0l3,0c1.7,0,3,1.3,3,3v0C6,4.7,4.7,6,3,6z"></path></g>
<g transform="translate(288,528) scale(4.12)"><path d="M6,6H0V3c0-1.7,1.3-3,3-3h0c1.7,0,3,1.3,3,3V6z"></path></g>
<g transform="translate(360,528) scale(4.12)"><path d="M6,6H0V3c0-1.7,1.3-3,3-3h0c1.7,0,3,1.3,3,3V6z"></path></g>
<g transform="translate(432,528) scale(4.12)"><path d="M6,6H0V3c0-1.7,1.3-3,3-3h0c1.7,0,3,1.3,3,3V6z"></path></g>
<g transform="translate(552,528) scale(4.12)"><path d="M3,6L3,6C1.3,6,0,4.7,0,3V0h6v3C6,4.7,4.7,6,3,6z"></path></g>
<g transform="translate(624,528) scale(4.12)"><path d="M6,6H3C1.3,6,0,4.7,0,3v0c0-1.7,1.3-3,3-3h3C6,0,6,6,6,6z"></path></g>
<g transform="translate(648,528) scale(4.12)"><rect width="6" height="6"></rect></g>
<g transform="translate(672,528) scale(4.12)"><rect width="6" height="6"></rect></g>
<g transform="translate(696,528) scale(4.12)"><path d="M3,6H0V0l6,0v3C6,4.7,4.7,6,3,6z"></path></g>
<g transform="translate(744,528) scale(4.12)"><path d="M6,6H3C1.3,6,0,4.7,0,3V0l6,0V6z"></path></g>
<g transform="translate(768,528) scale(4.12)"><rect width="6" height="6"></rect></g>
<g transform="translate(792,528) scale(4.12)"><rect width="6" height="6"></rect></g>
<g transform="translate(816,528) scale(4.12)"><rect width="6" height="6"></rect></g>
<g transform="translate(840,528) scale(4.12)"><rect width="6" height="6"></rect></g>
<g transform="translate(864,528) scale(4.12)"><rect width="6" height="6"></rect></g>
<g transform="translate(888,528) scale(4.12)"><rect width="6" height="6"></rect></g>
<g transform="translate(912,528) scale(4.12)"><path d="M3,6H0V0l3,0c1.7,0,3,1.3,3,3v0C6,4.7,4.7,6,3,6z"></path></g>
<g transform="translate(72,552) scale(4.12)"><path d="M6,6H3C1.3,6,0,4.7,0,3v0c0-1.7,1.3-3,3-3h3C6,0,6,6,6,6z"></path></g>
<g transform="translate(96,552) scale(4.12)"><rect width="6" height="6"></rect></g>
<g transform="translate(120,552) scale(4.12)"><rect width="6" height="6"></rect></g>
<g transform="translate(144,552) scale(4.12)"><rect width="6" height="6"></rect></g>
<g transform="translate(264,552) scale(4.12)"><path d="M6,6H3C1.3,6,0,4.7,0,3v0c0-1.7,1.3-3,3-3h3C6,0,6,6,6,6z"></path></g>
<g transform="translate(288,552) scale(4.12)"><rect width="6" height="6"></rect></g>
<g transform="translate(312,552) scale(4.12)"><path d="M6,6H0V0l3,0c1.7,0,3,1.3,3,3V6z"></path></g>
<g transform="translate(360,552) scale(4.12)"><rect width="6" height="6"></rect></g>
<g transform="translate(432,552) scale(4.12)"><rect width="6" height="6"></rect></g>
<g transform="translate(504,552) scale(4.12)"><path d="M6,6H0V3c0-1.7,1.3-3,3-3h0c1.7,0,3,1.3,3,3V6z"></path></g>
<g transform="translate(600,552) scale(4.12)"><circle cx="3" cy="3" r="3"></circle></g>
<g transform="translate(648,552) scale(4.12)"><rect width="6" height="6"></rect></g>
<g transform="translate(672,552) scale(4.12)"><rect width="6" height="6"></rect></g>
<g transform="translate(792,552) scale(4.12)"><path d="M3,6L3,6C1.3,6,0,4.7,0,3V0h6v3C6,4.7,4.7,6,3,6z"></path></g>
<g transform="translate(888,552) scale(4.12)"><rect width="6" height="6"></rect></g>
<g transform="translate(96,576) scale(4.12)"><path d="M6,6H3C1.3,6,0,4.7,0,3V0l6,0V6z"></path></g>
<g transform="translate(120,576) scale(4.12)"><rect width="6" height="6"></rect></g>
<g transform="translate(144,576) scale(4.12)"><path d="M3,6H0V0l6,0v3C6,4.7,4.7,6,3,6z"></path></g>
<g transform="translate(192,576) scale(4.12)"><path d="M6,6H3C1.3,6,0,4.7,0,3v0c0-1.7,1.3-3,3-3h3C6,0,6,6,6,6z"></path></g>
<g transform="translate(216,576) scale(4.12)"><rect width="6" height="6"></rect></g>
<g transform="translate(240,576) scale(4.12)"><path d="M6,6H0V0l3,0c1.7,0,3,1.3,3,3V6z"></path></g>
<g transform="translate(288,576) scale(4.12)"><rect width="6" height="6"></rect></g>
<g transform="translate(312,576) scale(4.12)"><rect width="6" height="6"></rect></g>
<g transform="translate(360,576) scale(4.12)"><rect width="6" height="6"></rect></g>
<g transform="translate(384,576) scale(4.12)"><rect width="6" height="6"></rect></g>
<g transform="translate(408,576) scale(4.12)"><rect width="6" height="6"></rect></g>
<g transform="translate(432,576) scale(4.12)"><path d="M3,6H0V0l6,0v3C6,4.7,4.7,6,3,6z"></path></g>
<g transform="translate(504,576) scale(4.12)"><rect width="6" height="6"></rect></g>
<g transform="translate(528,576) scale(4.12)"><path d="M3,6H0V0l3,0c1.7,0,3,1.3,3,3v0C6,4.7,4.7,6,3,6z"></path></g>
<g transform="translate(624,576) scale(4.12)"><path d="M6,6H3C1.3,6,0,4.7,0,3v0c0-1.7,1.3-3,3-3h3C6,0,6,6,6,6z"></path></g>
<g transform="translate(648,576) scale(4.12)"><rect width="6" height="6"></rect></g>
<g transform="translate(672,576) scale(4.12)"><rect width="6" height="6"></rect></g>
<g transform="translate(696,576) scale(4.12)"><path d="M3,6H0V0l3,0c1.7,0,3,1.3,3,3v0C6,4.7,4.7,6,3,6z"></path></g>
<g transform="translate(744,576) scale(4.12)"><path d="M6,6H3C1.3,6,0,4.7,0,3v0c0-1.7,1.3-3,3-3h3C6,0,6,6,6,6z"></path></g>
<g transform="translate(768,576) scale(4.12)"><path d="M6,6H0V0l3,0c1.7,0,3,1.3,3,3V6z"></path></g>
<g transform="translate(888,576) scale(4.12)"><rect width="6" height="6"></rect></g>
<g transform="translate(912,576) scale(4.12)"><path d="M6,6H0V0l3,0c1.7,0,3,1.3,3,3V6z"></path></g>
<g transform="translate(120,600) scale(4.12)"><path d="M3,6L3,6C1.3,6,0,4.7,0,3V0h6v3C6,4.7,4.7,6,3,6z"></path></g>
<g transform="translate(240,600) scale(4.12)"><path d="M6,6H3C1.3,6,0,4.7,0,3V0l6,0V6z"></path></g>
<g transform="translate(264,600) scale(4.12)"><rect width="6" height="6"></rect></g>
<g transform="translate(288,600) scale(4.12)"><rect width="6" height="6"></rect></g>
<g transform="translate(312,600) scale(4.12)"><rect width="6" height="6"></rect></g>
<g transform="translate(336,600) scale(4.12)"><rect width="6" height="6"></rect></g>
<g transform="translate(360,600) scale(4.12)"><rect width="6" height="6"></rect></g>
<g transform="translate(384,600) scale(4.12)"><rect width="6" height="6"></rect></g>
<g transform="translate(408,600) scale(4.12)"><path d="M3,6H0V0l6,0v3C6,4.7,4.7,6,3,6z"></path></g>
<g transform="translate(456,600) scale(4.12)"><path d="M6,6H0V3c0-1.7,1.3-3,3-3l3,0V6z"></path></g>
<g transform="translate(480,600) scale(4.12)"><rect width="6" height="6"></rect></g>
<g transform="translate(504,600) scale(4.12)"><rect width="6" height="6"></rect></g>
<g transform="translate(552,600) scale(4.12)"><path d="M6,6H3C1.3,6,0,4.7,0,3v0c0-1.7,1.3-3,3-3h3C6,0,6,6,6,6z"></path></g>
<g transform="translate(576,600) scale(4.12)"><rect width="6" height="6"></rect></g>
<g transform="translate(600,600) scale(4.12)"><path d="M3,6H0V0l3,0c1.7,0,3,1.3,3,3v0C6,4.7,4.7,6,3,6z"></path></g>
<g transform="translate(648,600) scale(4.12)"><path d="M3,6L3,6C1.3,6,0,4.7,0,3V0h6v3C6,4.7,4.7,6,3,6z"></path></g>
<g transform="translate(768,600) scale(4.12)"><rect width="6" height="6"></rect></g>
<g transform="translate(792,600) scale(4.12)"><path d="M3,6H0V0l3,0c1.7,0,3,1.3,3,3v0C6,4.7,4.7,6,3,6z"></path></g>
<g transform="translate(888,600) scale(4.12)"><path d="M6,6H3C1.3,6,0,4.7,0,3V0l6,0V6z"></path></g>
<g transform="translate(912,600) scale(4.12)"><rect width="6" height="6"></rect></g>
<g transform="translate(48,624) scale(4.12)"><path d="M6,6H0V3c0-1.7,1.3-3,3-3l3,0V6z"></path></g>
<g transform="translate(72,624) scale(4.12)"><path d="M3,6H0V0l3,0c1.7,0,3,1.3,3,3v0C6,4.7,4.7,6,3,6z"></path></g>
<g transform="translate(192,624) scale(4.12)"><path d="M6,6H3C1.3,6,0,4.7,0,3v0c0-1.7,1.3-3,3-3h3C6,0,6,6,6,6z"></path></g>
<g transform="translate(216,624) scale(4.12)"><path d="M6,6H0V0l3,0c1.7,0,3,1.3,3,3V6z"></path></g>
<g transform="translate(312,624) scale(4.12)"><rect width="6" height="6"></rect></g>
<g transform="translate(456,624) scale(4.12)"><rect width="6" height="6"></rect></g>
<g transform="translate(504,624) scale(4.12)"><rect width="6" height="6"></rect></g>
<g transform="translate(528,624) scale(4.12)"><path d="M3,6H0V0l3,0c1.7,0,3,1.3,3,3v0C6,4.7,4.7,6,3,6z"></path></g>
<g transform="translate(576,624) scale(4.12)"><path d="M3,6L3,6C1.3,6,0,4.7,0,3V0h6v3C6,4.7,4.7,6,3,6z"></path></g>
<g transform="translate(624,624) scale(4.12)"><circle cx="3" cy="3" r="3"></circle></g>
<g transform="translate(672,624) scale(4.12)"><circle cx="3" cy="3" r="3"></circle></g>
<g transform="translate(744,624) scale(4.12)"><path d="M6,6H3C1.3,6,0,4.7,0,3v0c0-1.7,1.3-3,3-3h3C6,0,6,6,6,6z"></path></g>
<g transform="translate(768,624) scale(4.12)"><path d="M3,6H0V0l6,0v3C6,4.7,4.7,6,3,6z"></path></g>
<g transform="translate(816,624) scale(4.12)"><circle cx="3" cy="3" r="3"></circle></g>
<g transform="translate(864,624) scale(4.12)"><path d="M6,6H0V3c0-1.7,1.3-3,3-3h0c1.7,0,3,1.3,3,3V6z"></path></g>
<g transform="translate(912,624) scale(4.12)"><path d="M3,6L3,6C1.3,6,0,4.7,0,3V0h6v3C6,4.7,4.7,6,3,6z"></path></g>
<g transform="translate(48,648) scale(4.12)"><rect width="6" height="6"></rect></g>
<g transform="translate(96,648) scale(4.12)"><path d="M6,6H0V3c0-1.7,1.3-3,3-3l3,0V6z"></path></g>
<g transform="translate(120,648) scale(4.12)"><path d="M6,6H0V0l3,0c1.7,0,3,1.3,3,3V6z"></path></g>
<g transform="translate(216,648) scale(4.12)"><rect width="6" height="6"></rect></g>
<g transform="translate(240,648) scale(4.12)"><rect width="6" height="6"></rect></g>
<g transform="translate(264,648) scale(4.12)"><path d="M6,6H0V0l3,0c1.7,0,3,1.3,3,3V6z"></path></g>
<g transform="translate(312,648) scale(4.12)"><path d="M3,6L3,6C1.3,6,0,4.7,0,3V0h6v3C6,4.7,4.7,6,3,6z"></path></g>
<g transform="translate(360,648) scale(4.12)"><path d="M6,6H0V3c0-1.7,1.3-3,3-3l3,0V6z"></path></g>
<g transform="translate(384,648) scale(4.12)"><rect width="6" height="6"></rect></g>
<g transform="translate(408,648) scale(4.12)"><path d="M6,6H0V0l3,0c1.7,0,3,1.3,3,3V6z"></path></g>
<g transform="translate(456,648) scale(4.12)"><path d="M3,6L3,6C1.3,6,0,4.7,0,3V0h6v3C6,4.7,4.7,6,3,6z"></path></g>
<g transform="translate(504,648) scale(4.12)"><path d="M3,6L3,6C1.3,6,0,4.7,0,3V0h6v3C6,4.7,4.7,6,3,6z"></path></g>
<g transform="translate(696,648) scale(4.12)"><path d="M6,6H0V3c0-1.7,1.3-3,3-3h0c1.7,0,3,1.3,3,3V6z"></path></g>
<g transform="translate(792,648) scale(4.12)"><path d="M6,6H0V3c0-1.7,1.3-3,3-3h0c1.7,0,3,1.3,3,3V6z"></path></g>
<g transform="translate(864,648) scale(4.12)"><path d="M6,6H3C1.3,6,0,4.7,0,3V0l6,0V6z"></path></g>
<g transform="translate(888,648) scale(4.12)"><path d="M6,6H0V0l3,0c1.7,0,3,1.3,3,3V6z"></path></g>
<g transform="translate(48,672) scale(4.12)"><rect width="6" height="6"></rect></g>
<g transform="translate(96,672) scale(4.12)"><rect width="6" height="6"></rect></g>
<g transform="translate(120,672) scale(4.12)"><rect width="6" height="6"></rect></g>
<g transform="translate(144,672) scale(4.12)"><rect width="6" height="6"></rect></g>
<g transform="translate(168,672) scale(4.12)"><rect width="6" height="6"></rect></g>
<g transform="translate(192,672) scale(4.12)"><rect width="6" height="6"></rect></g>
<g transform="translate(216,672) scale(4.12)"><rect width="6" height="6"></rect></g>
<g transform="translate(240,672) scale(4.12)"><rect width="6" height="6"></rect></g>
<g transform="translate(264,672) scale(4.12)"><rect width="6" height="6"></rect></g>
<g transform="translate(288,672) scale(4.12)"><path d="M3,6H0V0l3,0c1.7,0,3,1.3,3,3v0C6,4.7,4.7,6,3,6z"></path></g>
<g transform="translate(360,672) scale(4.12)"><path d="M6,6H3C1.3,6,0,4.7,0,3V0l6,0V6z"></path></g>
<g transform="translate(384,672) scale(4.12)"><rect width="6" height="6"></rect></g>
<g transform="translate(408,672) scale(4.12)"><rect width="6" height="6"></rect></g>
<g transform="translate(432,672) scale(4.12)"><path d="M6,6H0V0l3,0c1.7,0,3,1.3,3,3V6z"></path></g>
<g transform="translate(480,672) scale(4.12)"><circle cx="3" cy="3" r="3"></circle></g>
<g transform="translate(576,672) scale(4.12)"><path d="M6,6H3C1.3,6,0,4.7,0,3v0c0-1.7,1.3-3,3-3h3C6,0,6,6,6,6z"></path></g>
<g transform="translate(600,672) scale(4.12)"><rect width="6" height="6"></rect></g>
<g transform="translate(624,672) scale(4.12)"><rect width="6" height="6"></rect></g>
<g transform="translate(648,672) scale(4.12)"><rect width="6" height="6"></rect></g>
<g transform="translate(672,672) scale(4.12)"><rect width="6" height="6"></rect></g>
<g transform="translate(696,672) scale(4.12)"><rect width="6" height="6"></rect></g>
<g transform="translate(720,672) scale(4.12)"><path d="M6,6H0V0l3,0c1.7,0,3,1.3,3,3V6z"></path></g>
<g transform="translate(768,672) scale(4.12)"><path d="M6,6H3C1.3,6,0,4.7,0,3v0c0-1.7,1.3-3,3-3h3C6,0,6,6,6,6z"></path></g>
<g transform="translate(792,672) scale(4.12)"><rect width="6" height="6"></rect></g>
<g transform="translate(816,672) scale(4.12)"><path d="M3,6H0V0l3,0c1.7,0,3,1.3,3,3v0C6,4.7,4.7,6,3,6z"></path></g>
<g transform="translate(888,672) scale(4.12)"><path d="M6,6H3C1.3,6,0,4.7,0,3V0l6,0V6z"></path></g>
<g transform="translate(912,672) scale(4.12)"><path d="M3,6H0V0l3,0c1.7,0,3,1.3,3,3v0C6,4.7,4.7,6,3,6z"></path></g>
<g transform="translate(48,696) scale(4.12)"><rect width="6" height="6"></rect></g>
<g transform="translate(96,696) scale(4.12)"><rect width="6" height="6"></rect></g>
<g transform="translate(168,696) scale(4.12)"><path d="M3,6L3,6C1.3,6,0,4.7,0,3V0h6v3C6,4.7,4.7,6,3,6z"></path></g>
<g transform="translate(240,696) scale(4.12)"><rect width="6" height="6"></rect></g>
<g transform="translate(264,696) scale(4.12)"><rect width="6" height="6"></rect></g>
<g transform="translate(312,696) scale(4.12)"><path d="M6,6H0V3c0-1.7,1.3-3,3-3h0c1.7,0,3,1.3,3,3V6z"></path></g>
<g transform="translate(432,696) scale(4.12)"><path d="M3,6L3,6C1.3,6,0,4.7,0,3V0h6v3C6,4.7,4.7,6,3,6z"></path></g>
<g transform="translate(504,696) scale(4.12)"><path d="M6,6H0V3c0-1.7,1.3-3,3-3h0c1.7,0,3,1.3,3,3V6z"></path></g>
<g transform="translate(552,696) scale(4.12)"><path d="M6,6H0V3c0-1.7,1.3-3,3-3h0c1.7,0,3,1.3,3,3V6z"></path></g>
<g transform="translate(600,696) scale(4.12)"><rect width="6" height="6"></rect></g>
<g transform="translate(696,696) scale(4.12)"><rect width="6" height="6"></rect></g>
<g transform="translate(720,696) scale(4.12)"><rect width="6" height="6"></rect></g>
<g transform="translate(744,696) scale(4.12)"><path d="M6,6H0V0l3,0c1.7,0,3,1.3,3,3V6z"></path></g>
<g transform="translate(48,720) scale(4.12)"><path d="M3,6L3,6C1.3,6,0,4.7,0,3V0h6v3C6,4.7,4.7,6,3,6z"></path></g>
<g transform="translate(96,720) scale(4.12)"><path d="M3,6L3,6C1.3,6,0,4.7,0,3V0h6v3C6,4.7,4.7,6,3,6z"></path></g>
<g transform="translate(192,720) scale(4.12)"><circle cx="3" cy="3" r="3"></circle></g>
<g transform="translate(240,720) scale(4.12)"><rect width="6" height="6"></rect></g>
<g transform="translate(264,720) scale(4.12)"><rect width="6" height="6"></rect></g>
<g transform="translate(288,720) scale(4.12)"><rect width="6" height="6"></rect></g>
<g transform="translate(312,720) scale(4.12)"><path d="M3,6H0V0l6,0v3C6,4.7,4.7,6,3,6z"></path></g>
<g transform="translate(360,720) scale(4.12)"><circle cx="3" cy="3" r="3"></circle></g>
<g transform="translate(456,720) scale(4.12)"><path d="M6,6H0V3c0-1.7,1.3-3,3-3l3,0V6z"></path></g>
<g transform="translate(480,720) scale(4.12)"><rect width="6" height="6"></rect></g>
<g transform="translate(504,720) scale(4.12)"><path d="M3,6H0V0l6,0v3C6,4.7,4.7,6,3,6z"></path></g>
<g transform="translate(552,720) scale(4.12)"><path d="M6,6H3C1.3,6,0,4.7,0,3V0l6,0V6z"></path></g>
<g transform="translate(576,720) scale(4.12)"><rect width="6" height="6"></rect></g>
<g transform="translate(600,720) scale(4.12)"><rect width="6" height="6"></rect></g>
<g transform="translate(648,720) scale(4.12)"><path d="M6,6H0V3c0-1.7,1.3-3,3-3l3,0V6z"></path></g>
<g transform="translate(672,720) scale(4.12)"><rect width="6" height="6"></rect></g>
<g transform="translate(696,720) scale(4.12)"><rect width="6" height="6"></rect></g>
<g transform="translate(720,720) scale(4.12)"><rect width="6" height="6"></rect></g>
<g transform="translate(744,720) scale(4.12)"><rect width="6" height="6"></rect></g>
<g transform="translate(768,720) scale(4.12)"><rect width="6" height="6"></rect></g>
<g transform="translate(792,720) scale(4.12)"><rect width="6" height="6"></rect></g>
<g transform="translate(816,720) scale(4.12)"><rect width="6" height="6"></rect></g>
<g transform="translate(840,720) scale(4.12)"><rect width="6" height="6"></rect></g>
<g transform="translate(864,720) scale(4.12)"><rect width="6" height="6"></rect></g>
<g transform="translate(888,720) scale(4.12)"><path d="M3,6H0V0l3,0c1.7,0,3,1.3,3,3v0C6,4.7,4.7,6,3,6z"></path></g>
<g transform="translate(240,744) scale(4.12)"><path d="M3,6L3,6C1.3,6,0,4.7,0,3V0h6v3C6,4.7,4.7,6,3,6z"></path></g>
<g transform="translate(336,744) scale(4.12)"><path d="M6,6H0V3c0-1.7,1.3-3,3-3h0c1.7,0,3,1.3,3,3V6z"></path></g>
<g transform="translate(384,744) scale(4.12)"><path d="M6,6H0V3c0-1.7,1.3-3,3-3h0c1.7,0,3,1.3,3,3V6z"></path></g>
<g transform="translate(432,744) scale(4.12)"><path d="M6,6H3C1.3,6,0,4.7,0,3v0c0-1.7,1.3-3,3-3h3C6,0,6,6,6,6z"></path></g>
<g transform="translate(456,744) scale(4.12)"><path d="M3,6H0V0l6,0v3C6,4.7,4.7,6,3,6z"></path></g>
<g transform="translate(576,744) scale(4.12)"><rect width="6" height="6"></rect></g>
<g transform="translate(600,744) scale(4.12)"><path d="M3,6H0V0l6,0v3C6,4.7,4.7,6,3,6z"></path></g>
<g transform="translate(648,744) scale(4.12)"><path d="M3,6L3,6C1.3,6,0,4.7,0,3V0h6v3C6,4.7,4.7,6,3,6z"></path></g>
<g transform="translate(696,744) scale(4.12)"><path d="M6,6H3C1.3,6,0,4.7,0,3V0l6,0V6z"></path></g>
<g transform="translate(720,744) scale(4.12)"><rect width="6" height="6"></rect></g>
<g transform="translate(816,744) scale(4.12)"><rect width="6" height="6"></rect></g>
<g transform="translate(264,768) scale(4.12)"><path d="M6,6H3C1.3,6,0,4.7,0,3v0c0-1.7,1.3-3,3-3h3C6,0,6,6,6,6z"></path></g>
<g transform="translate(288,768) scale(4.12)"><rect width="6" height="6"></rect></g>
<g transform="translate(312,768) scale(4.12)"><rect width="6" height="6"></rect></g>
<g transform="translate(336,768) scale(4.12)"><rect width="6" height="6"></rect></g>
<g transform="translate(360,768) scale(4.12)"><rect width="6" height="6"></rect></g>
<g transform="translate(384,768) scale(4.12)"><rect width="6" height="6"></rect></g>
<g transform="translate(408,768) scale(4.12)"><path d="M6,6H0V0l3,0c1.7,0,3,1.3,3,3V6z"></path></g>
<g transform="translate(504,768) scale(4.12)"><path d="M6,6H3C1.3,6,0,4.7,0,3v0c0-1.7,1.3-3,3-3h3C6,0,6,6,6,6z"></path></g>
<g transform="translate(528,768) scale(4.12)"><path d="M3,6H0V0l3,0c1.7,0,3,1.3,3,3v0C6,4.7,4.7,6,3,6z"></path></g>
<g transform="translate(576,768) scale(4.12)"><path d="M3,6L3,6C1.3,6,0,4.7,0,3V0h6v3C6,4.7,4.7,6,3,6z"></path></g>
<g transform="translate(720,768) scale(4.12)"><rect width="6" height="6"></rect></g>
<g transform="translate(768,768) scale(4.12)"><circle cx="3" cy="3" r="3"></circle></g>
<g transform="translate(816,768) scale(4.12)"><rect width="6" height="6"></rect></g>
<g transform="translate(840,768) scale(4.12)"><path d="M3,6H0V0l3,0c1.7,0,3,1.3,3,3v0C6,4.7,4.7,6,3,6z"></path></g>
<g transform="translate(888,768) scale(4.12)"><path d="M6,6H0V3c0-1.7,1.3-3,3-3l3,0V6z"></path></g>
<g transform="translate(912,768) scale(4.12)"><path d="M6,6H0V0l3,0c1.7,0,3,1.3,3,3V6z"></path></g>
<g transform="translate(288,792) scale(4.12)"><rect width="6" height="6"></rect></g>
<g transform="translate(312,792) scale(4.12)"><path d="M3,6H0V0l6,0v3C6,4.7,4.7,6,3,6z"></path></g>
<g transform="translate(360,792) scale(4.12)"><path d="M3,6L3,6C1.3,6,0,4.7,0,3V0h6v3C6,4.7,4.7,6,3,6z"></path></g>
<g transform="translate(408,792) scale(4.12)"><path d="M6,6H3C1.3,6,0,4.7,0,3V0l6,0V6z"></path></g>
<g transform="translate(432,792) scale(4.12)"><rect width="6" height="6"></rect></g>
<g transform="translate(456,792) scale(4.12)"><path d="M6,6H0V0l3,0c1.7,0,3,1.3,3,3V6z"></path></g>
<g transform="translate(552,792) scale(4.12)"><circle cx="3" cy="3" r="3"></circle></g>
<g transform="translate(600,792) scale(4.12)"><path d="M6,6H0V3c0-1.7,1.3-3,3-3h0c1.7,0,3,1.3,3,3V6z"></path></g>
<g transform="translate(672,792) scale(4.12)"><path d="M6,6H3C1.3,6,0,4.7,0,3v0c0-1.7,1.3-3,3-3h3C6,0,6,6,6,6z"></path></g>
<g transform="translate(696,792) scale(4.12)"><rect width="6" height="6"></rect></g>
<g transform="translate(720,792) scale(4.12)"><rect width="6" height="6"></rect></g>
<g transform="translate(816,792) scale(4.12)"><rect width="6" height="6"></rect></g>
<g transform="translate(888,792) scale(4.12)"><path d="M6,6H3C1.3,6,0,4.7,0,3V0l6,0V6z"></path></g>
<g transform="translate(912,792) scale(4.12)"><path d="M3,6H0V0l6,0v3C6,4.7,4.7,6,3,6z"></path></g>
<g transform="translate(240,816) scale(4.12)"><path d="M6,6H0V3c0-1.7,1.3-3,3-3l3,0V6z"></path></g>
<g transform="translate(264,816) scale(4.12)"><rect width="6" height="6"></rect></g>
<g transform="translate(288,816) scale(4.12)"><rect width="6" height="6"></rect></g>
<g transform="translate(336,816) scale(4.12)"><circle cx="3" cy="3" r="3"></circle></g>
<g transform="translate(384,816) scale(4.12)"><path d="M6,6H0V3c0-1.7,1.3-3,3-3h0c1.7,0,3,1.3,3,3V6z"></path></g>
<g transform="translate(456,816) scale(4.12)"><rect width="6" height="6"></rect></g>
<g transform="translate(504,816) scale(4.12)"><circle cx="3" cy="3" r="3"></circle></g>
<g transform="translate(600,816) scale(4.12)"><path d="M3,6L3,6C1.3,6,0,4.7,0,3V0h6v3C6,4.7,4.7,6,3,6z"></path></g>
<g transform="translate(648,816) scale(4.12)"><circle cx="3" cy="3" r="3"></circle></g>
<g transform="translate(696,816) scale(4.12)"><rect width="6" height="6"></rect></g>
<g transform="translate(720,816) scale(4.12)"><rect width="6" height="6"></rect></g>
<g transform="translate(744,816) scale(4.12)"><rect width="6" height="6"></rect></g>
<g transform="translate(768,816) scale(4.12)"><rect width="6" height="6"></rect></g>
<g transform="translate(792,816) scale(4.12)"><rect width="6" height="6"></rect></g>
<g transform="translate(816,816) scale(4.12)"><rect width="6" height="6"></rect></g>
<g transform="translate(864,816) scale(4.12)"><path d="M6,6H0V3c0-1.7,1.3-3,3-3h0c1.7,0,3,1.3,3,3V6z"></path></g>
<g transform="translate(240,840) scale(4.12)"><rect width="6" height="6"></rect></g>
<g transform="translate(264,840) scale(4.12)"><rect width="6" height="6"></rect></g>
<g transform="translate(288,840) scale(4.12)"><path d="M3,6H0V0l6,0v3C6,4.7,4.7,6,3,6z"></path></g>
<g transform="translate(384,840) scale(4.12)"><path d="M6,6H3C1.3,6,0,4.7,0,3V0l6,0V6z"></path></g>
<g transform="translate(408,840) scale(4.12)"><path d="M3,6H0V0l3,0c1.7,0,3,1.3,3,3v0C6,4.7,4.7,6,3,6z"></path></g>
<g transform="translate(456,840) scale(4.12)"><path d="M6,6H3C1.3,6,0,4.7,0,3V0l6,0V6z"></path></g>
<g transform="translate(480,840) scale(4.12)"><path d="M6,6H0V0l3,0c1.7,0,3,1.3,3,3V6z"></path></g>
<g transform="translate(528,840) scale(4.12)"><path d="M6,6H3C1.3,6,0,4.7,0,3v0c0-1.7,1.3-3,3-3h3C6,0,6,6,6,6z"></path></g>
<g transform="translate(552,840) scale(4.12)"><path d="M6,6H0V0l3,0c1.7,0,3,1.3,3,3V6z"></path></g>
<g transform="translate(624,840) scale(4.12)"><circle cx="3" cy="3" r="3"></circle></g>
<g transform="translate(696,840) scale(4.12)"><path d="M3,6L3,6C1.3,6,0,4.7,0,3V0h6v3C6,4.7,4.7,6,3,6z"></path></g>
<g transform="translate(768,840) scale(4.12)"><path d="M3,6L3,6C1.3,6,0,4.7,0,3V0h6v3C6,4.7,4.7,6,3,6z"></path></g>
<g transform="translate(816,840) scale(4.12)"><path d="M6,6H3C1.3,6,0,4.7,0,3V0l6,0V6z"></path></g>
<g transform="translate(840,840) scale(4.12)"><rect width="6" height="6"></rect></g>
<g transform="translate(864,840) scale(4.12)"><path d="M3,6H0V0l6,0v3C6,4.7,4.7,6,3,6z"></path></g>
<g transform="translate(240,864) scale(4.12)"><path d="M3,6L3,6C1.3,6,0,4.7,0,3V0h6v3C6,4.7,4.7,6,3,6z"></path></g>
<g transform="translate(336,864) scale(4.12)"><path d="M6,6H3C1.3,6,0,4.7,0,3v0c0-1.7,1.3-3,3-3h3C6,0,6,6,6,6z"></path></g>
<g transform="translate(360,864) scale(4.12)"><path d="M6,6H0V0l3,0c1.7,0,3,1.3,3,3V6z"></path></g>
<g transform="translate(480,864) scale(4.12)"><path d="M3,6L3,6C1.3,6,0,4.7,0,3V0h6v3C6,4.7,4.7,6,3,6z"></path></g>
<g transform="translate(552,864) scale(4.12)"><rect width="6" height="6"></rect></g>
<g transform="translate(576,864) scale(4.12)"><path d="M6,6H0V0l3,0c1.7,0,3,1.3,3,3V6z"></path></g>
<g transform="translate(720,864) scale(4.12)"><path d="M6,6H0V3c0-1.7,1.3-3,3-3l3,0V6z"></path></g>
<g transform="translate(744,864) scale(4.12)"><path d="M6,6H0V0l3,0c1.7,0,3,1.3,3,3V6z"></path></g>
<g transform="translate(792,864) scale(4.12)"><circle cx="3" cy="3" r="3"></circle></g>
<g transform="translate(912,864) scale(4.12)"><path d="M6,6H0V3c0-1.7,1.3-3,3-3h0c1.7,0,3,1.3,3,3V6z"></path></g>
<g transform="translate(264,888) scale(4.12)"><circle cx="3" cy="3" r="3"></circle></g>
<g transform="translate(312,888) scale(4.12)"><path d="M6,6H0V3c0-1.7,1.3-3,3-3h0c1.7,0,3,1.3,3,3V6z"></path></g>
<g transform="translate(360,888) scale(4.12)"><path d="M3,6L3,6C1.3,6,0,4.7,0,3V0h6v3C6,4.7,4.7,6,3,6z"></path></g>
<g transform="translate(408,888) scale(4.12)"><path d="M6,6H0V3c0-1.7,1.3-3,3-3l3,0V6z"></path></g>
<g transform="translate(432,888) scale(4.12)"><rect width="6" height="6"></rect></g>
<g transform="translate(456,888) scale(4.12)"><path d="M6,6H0V0l3,0c1.7,0,3,1.3,3,3V6z"></path></g>
<g transform="translate(504,888) scale(4.12)"><path d="M6,6H0V3c0-1.7,1.3-3,3-3h0c1.7,0,3,1.3,3,3V6z"></path></g>
<g transform="translate(552,888) scale(4.12)"><path d="M6,6H3C1.3,6,0,4.7,0,3V0l6,0V6z"></path></g>
<g transform="translate(576,888) scale(4.12)"><path d="M3,6H0V0l6,0v3C6,4.7,4.7,6,3,6z"></path></g>
<g transform="translate(624,888) scale(4.12)"><path d="M6,6H0V3c0-1.7,1.3-3,3-3h0c1.7,0,3,1.3,3,3V6z"></path></g>
<g transform="translate(696,888) scale(4.12)"><path d="M6,6H3C1.3,6,0,4.7,0,3v0c0-1.7,1.3-3,3-3h3C6,0,6,6,6,6z"></path></g>
<g transform="translate(720,888) scale(4.12)"><rect width="6" height="6"></rect></g>
<g transform="translate(744,888) scale(4.12)"><rect width="6" height="6"></rect></g>
<g transform="translate(816,888) scale(4.12)"><circle cx="3" cy="3" r="3"></circle></g>
<g transform="translate(912,888) scale(4.12)"><rect width="6" height="6"></rect></g>
<g transform="translate(312,912) scale(4.12)"><path d="M6,6H3C1.3,6,0,4.7,0,3V0l6,0V6z"></path></g>
<g transform="translate(336,912) scale(4.12)"><path d="M3,6H0V0l3,0c1.7,0,3,1.3,3,3v0C6,4.7,4.7,6,3,6z"></path></g>
<g transform="translate(384,912) scale(4.12)"><path d="M6,6H3C1.3,6,0,4.7,0,3v0c0-1.7,1.3-3,3-3h3C6,0,6,6,6,6z"></path></g>
<g transform="translate(408,912) scale(4.12)"><path d="M3,6H0V0l6,0v3C6,4.7,4.7,6,3,6z"></path></g>
<g transform="translate(456,912) scale(4.12)"><path d="M3,6L3,6C1.3,6,0,4.7,0,3V0h6v3C6,4.7,4.7,6,3,6z"></path></g>
<g transform="translate(504,912) scale(4.12)"><path d="M3,6L3,6C1.3,6,0,4.7,0,3V0h6v3C6,4.7,4.7,6,3,6z"></path></g>
<g transform="translate(624,912) scale(4.12)"><path d="M6,6H3C1.3,6,0,4.7,0,3V0l6,0V6z"></path></g>
<g transform="translate(648,912) scale(4.12)"><path d="M3,6H0V0l3,0c1.7,0,3,1.3,3,3v0C6,4.7,4.7,6,3,6z"></path></g>
<g transform="translate(744,912) scale(4.12)"><path d="M6,6H3C1.3,6,0,4.7,0,3V0l6,0V6z"></path></g>
<g transform="translate(768,912) scale(4.12)"><path d="M3,6H0V0l3,0c1.7,0,3,1.3,3,3v0C6,4.7,4.7,6,3,6z"></path></g>
<g transform="translate(840,912) scale(4.12)"><path d="M6,6H3C1.3,6,0,4.7,0,3v0c0-1.7,1.3-3,3-3h3C6,0,6,6,6,6z"></path></g>
<g transform="translate(864,912) scale(4.12)"><rect width="6" height="6"></rect></g>
<g transform="translate(888,912) scale(4.12)"><rect width="6" height="6"></rect></g>
<g transform="translate(912,912) scale(4.12)"><path d="M3,6H0V0l6,0v3C6,4.7,4.7,6,3,6z"></path></g>
</g></g></mask></defs>
<rect width="984" height="984" fill="#ffffff" x="0" y="0"></rect>
<rect x="0" y="0" width="984" height="984" mask="url(#qrmask)" fill="#000000"></rect>
<g><g transform="translate(48,48)" fill="#000000"><g transform="scale(12)"><path d="M4.5,14h5.1C12,14,14,12,14,9.6V4.5C14,2,12,0,9.5,0H4.4C2,0,0,2,0,4.4v5.1C0,12,2,14,4.5,14z M12,4.8v4.4 c0,1.5-1.3,2.8-2.8,2.8H4.8C3.2,12,2,10.8,2,9.2V4.8C2,3.3,3.3,2,4.8,2h4.4C10.8,2,12,3.2,12,4.8z"></path></g></g>
<g transform="translate(96,96)" fill="#000000"><g transform="scale(12)"><path d="M6,1.7v2.7C6,5.2,5.2,6,4.3,6H1.7C0.7,6,0,5.3,0,4.3V1.7C0,0.8,0.8,0,1.7,0h2.7C5.3,0,6,0.7,6,1.7z"></path></g></g>
<g transform="translate(768,48)" fill="#000000"><g transform="scale(12)"><path d="M4.5,14h5.1C12,14,14,12,14,9.6V4.5C14,2,12,0,9.5,0H4.4C2,0,0,2,0,4.4v5.1C0,12,2,14,4.5,14z M12,4.8v4.4 c0,1.5-1.3,2.8-2.8,2.8H4.8C3.2,12,2,10.8,2,9.2V4.8C2,3.3,3.3,2,4.8,2h4.4C10.8,2,12,3.2,12,4.8z"></path></g></g>
<g transform="translate(816,96)" fill="#000000"><g transform="scale(12)"><path d="M6,1.7v2.7C6,5.2,5.2,6,4.3,6H1.7C0.7,6,0,5.3,0,4.3V1.7C0,0.8,0.8,0,1.7,0h2.7C5.3,0,6,0.7,6,1.7z"></path></g></g>
<g transform="translate(48,768)" fill="#000000"><g transform="scale(12)"><path d="M4.5,14h5.1C12,14,14,12,14,9.6V4.5C14,2,12,0,9.5,0H4.4C2,0,0,2,0,4.4v5.1C0,12,2,14,4.5,14z M12,4.8v4.4 c0,1.5-1.3,2.8-2.8,2.8H4.8C3.2,12,2,10.8,2,9.2V4.8C2,3.3,3.3,2,4.8,2h4.4C10.8,2,12,3.2,12,4.8z"></path></g></g>
<g transform="translate(96,816)" fill="#000000"><g transform="scale(12)"><path d="M6,1.7v2.7C6,5.2,5.2,6,4.3,6H1.7C0.7,6,0,5.3,0,4.3V1.7C0,0.8,0.8,0,1.7,0h2.7C5.3,0,6,0.7,6,1.7z"></path></g></g></g>
</svg>